<?xml version="1.0" encoding="utf-8"?>
<svg version="1.1" xmlns:xlink="http://www.w3.org/1999/xlink" width="15px" height="17px" xmlns="http://www.w3.org/2000/svg">
  <g transform="matrix(1 0 0 1 -8 -21 )">
    <path d="M 14.6688179347826 6.81418485237484  C 14.8896059782609 7.08697047496791  15 7.41613179289688  15 7.80166880616175  L 15 9.19833119383826  C 15 9.58386820710312  14.8896059782609 9.91302952503209  14.6688179347826 10.1858151476252  C 14.4480298913043 10.4586007702182  14.1610054347826 10.5949935815148  13.8077445652174 10.5949935815148  L 6.63383152173913 10.5949935815148  L 9.6195652173913 13.8029525032092  C 9.87771739130435 14.0648267008986  10.0067934782609 14.3921694480103  10.0067934782609 14.7849807445443  C 10.0067934782609 15.1777920410783  9.87771739130435 15.50513478819  9.6195652173913 15.7670089858793  L 8.85529891304348 16.5962772785623  C 8.6039402173913 16.8654257595208  8.29823369565217 17  7.93817934782609 17  C 7.58491847826087 17  7.2758152173913 16.8654257595208  7.01086956521739 16.5962772785623  L 0.377038043478261 9.48202824133505  C 0.125679347826087 9.21287976037655  0 8.88553701326487  0 8.5  C 0 8.12173727000428  0.125679347826087 7.79075738125802  0.377038043478261 7.50706033376123  L 7.01086956521739 0.414634146341464  C 7.26902173913044 0.13821138211382  7.578125 0  7.93817934782609 0  C 8.2914402173913 0  8.59714673913044 0.13821138211382  8.85529891304348 0.414634146341464  L 9.6195652173913 1.22207958921694  C 9.87771739130435 1.49850235344459  10.0067934782609 1.82948224219084  10.0067934782609 2.21501925545571  C 10.0067934782609 2.60055626872058  9.87771739130435 2.93153615746684  9.6195652173913 3.20795892169448  L 6.63383152173913 6.40500641848524  L 13.8077445652174 6.40500641848524  C 14.1610054347826 6.40500641848524  14.4480298913043 6.54139922978177  14.6688179347826 6.81418485237484  Z " fill-rule="nonzero" fill="#ffffff" stroke="none" transform="matrix(1 0 0 1 8 21 )" />
  </g>
</svg>