<?xml version="1.0" encoding="utf-8"?>
<svg version="1.1" xmlns:xlink="http://www.w3.org/1999/xlink" width="28px" height="27px" xmlns="http://www.w3.org/2000/svg">
  <g transform="matrix(1 0 0 1 -637 -324 )">
    <path d="M 27.0576923076923 9.68052930056711  C 27.6858974358974 9.78260869565218  28 10.0434782608696  28 10.4631379962193  C 28 10.7126654064272  27.8541666666667 10.9848771266541  27.5625 11.2797731568998  L 21.4543269230769 17.3024574669187  L 22.9014423076923 25.8090737240076  C 22.9126602564103 25.8884688090737  22.9182692307692 26.0018903591682  22.9182692307692 26.1493383742911  C 22.9182692307692 26.3875236294896  22.859375 26.5888468809074  22.7415865384615 26.7533081285444  C 22.6237980769231 26.9177693761815  22.4527243589744 27  22.2283653846154 27  C 22.0152243589744 27  21.7908653846154 26.9319470699433  21.5552884615385 26.7958412098299  L 14 22.7807183364839  L 6.44471153846154 26.7958412098299  C 6.19791666666667 26.9319470699433  5.97355769230769 27  5.77163461538462 27  C 5.53605769230769 27  5.359375 26.9177693761815  5.24158653846154 26.7533081285444  C 5.12379807692308 26.5888468809074  5.06490384615385 26.3875236294896  5.06490384615385 26.1493383742911  C 5.06490384615385 26.0812854442344  5.0761217948718 25.9678638941399  5.09855769230769 25.8090737240076  L 6.54567307692308 17.3024574669187  L 0.420673076923077 11.2797731568998  C 0.140224358974359 10.9735349716446  0 10.7013232514178  0 10.4631379962193  C 0 10.0434782608696  0.314102564102564 9.78260869565218  0.942307692307692 9.68052930056711  L 9.38942307692308 8.43856332703214  L 13.1754807692308 0.697542533081284  C 13.3886217948718 0.23251417769376  13.6634615384615 0  14 0  C 14.3365384615385 0  14.6113782051282 0.23251417769376  14.8245192307692 0.697542533081284  L 18.6105769230769 8.43856332703214  L 27.0576923076923 9.68052930056711  Z " fill-rule="nonzero" fill="#ffffff" stroke="none" transform="matrix(1 0 0 1 637 324 )" />
  </g>
</svg>