<?xml version="1.0" encoding="utf-8"?>
<svg version="1.1" xmlns:xlink="http://www.w3.org/1999/xlink" width="14px" height="15px" xmlns="http://www.w3.org/2000/svg">
  <g transform="matrix(1 0 0 1 -7 -8 )">
    <path d="M 13.6908967391304 6.01251604621309  C 13.8969655797101 6.25320924261874  14 6.54364569961489  14 6.88382541720154  L 14 8.11617458279846  C 14 8.45635430038511  13.8969655797101 8.74679075738126  13.6908967391304 8.98748395378691  C 13.4848278985507 9.22817715019255  13.2169384057971 9.34852374839538  12.8872282608696 9.34852374839538  L 6.19157608695652 9.34852374839538  L 8.97826086956522 12.1790757381258  C 9.21920289855073 12.4101412066752  9.33967391304348 12.698973042362  9.33967391304348 13.0455712451861  C 9.33967391304348 13.3921694480103  9.21920289855073 13.681001283697  8.97826086956522 13.9120667522465  L 8.26494565217391 14.6437740693196  C 8.03034420289855 14.8812580231065  7.74501811594203 15  7.40896739130435 15  C 7.07925724637681 15  6.79076086956522 14.8812580231065  6.54347826086957 14.6437740693196  L 0.351902173913043 8.36649550706033  C 0.117300724637681 8.12901155327343  0 7.84017971758665  0 7.5  C 0 7.16623876765083  0.117300724637681 6.87419768934531  0.351902173913043 6.62387676508344  L 6.54347826086957 0.365853658536586  C 6.78442028985507 0.121951219512194  7.07291666666667 0  7.40896739130435 0  C 7.73867753623188 0  8.02400362318841 0.121951219512194  8.26494565217391 0.365853658536586  L 8.97826086956522 1.0783055198973  C 9.21920289855073 1.32220795892169  9.33967391304348 1.61424903722721  9.33967391304348 1.95442875481386  C 9.33967391304348 2.29460847240051  9.21920289855073 2.58664955070603  8.97826086956522 2.83055198973042  L 6.19157608695652 5.65147625160462  L 12.8872282608696 5.65147625160462  C 13.2169384057971 5.65147625160462  13.4848278985507 5.77182284980745  13.6908967391304 6.01251604621309  Z " fill-rule="nonzero" fill="#ffffff" stroke="none" transform="matrix(1 0 0 1 7 8 )" />
  </g>
</svg>