<?xml version="1.0" encoding="utf-8"?>
<svg version="1.1" xmlns:xlink="http://www.w3.org/1999/xlink" width="28px" height="28px" xmlns="http://www.w3.org/2000/svg">
  <g transform="matrix(1 0 0 1 -280 -23 )">
    <path d="M 28 14  C 28 6.265  21.735 0  14 0  C 6.265 0  0 6.265  0 14  C 0 21.735  6.265 28  14 28  C 21.735 28  28 21.735  28 14  Z M 9.79999999999999 8.4  C 9.79999999999999 6.083  11.683 4.20000000000001  14 4.20000000000001  C 16.317 4.20000000000001  18.2 6.083  18.2 8.4  C 18.2 10.724  16.317 12.6  14 12.6  C 11.683 12.6  9.79999999999999 10.724  9.79999999999999 8.4  Z M 22.4 19.572  C 20.587 22.288  17.507 24.08  14 24.08  C 10.493 24.08  7.41300000000001 22.288  5.60000000000001 19.572  C 5.635 16.793  11.207 15.26  14 15.26  C 16.793 15.26  22.358 16.793  22.4 19.572  Z " fill-rule="nonzero" fill="#ffffff" stroke="none" transform="matrix(1 0 0 1 280 23 )" />
  </g>
</svg>