<?xml version="1.0" encoding="utf-8"?>
<svg version="1.1" xmlns:xlink="http://www.w3.org/1999/xlink" width="20px" height="18px" xmlns="http://www.w3.org/2000/svg">
  <g transform="matrix(1 0 0 1 -188 -149 )">
    <path d="M 13 0  L 7 0  L 5.17 2  L 2 2  C 0.895 2  0 2.895  0 4  L 0 16  C 0 17.105  0.895 18  2 18  L 18 18  C 19.105 18  20 17.105  20 16  L 20 4  C 20 2.895  19.105 2  18 2  L 14.83 2  L 13 0  Z M 15 10  C 15 12.76  12.76 15  10 15  C 7.24 15  5 12.76  5 10  C 5 7.24  7.24 5  10 5  C 12.76 5  15 7.24  15 10  Z " fill-rule="nonzero" fill="#000000" stroke="none" transform="matrix(1 0 0 1 188 149 )" />
  </g>
</svg>