<?xml version="1.0" encoding="utf-8"?>
<svg version="1.1" xmlns:xlink="http://www.w3.org/1999/xlink" width="15px" height="13px" xmlns="http://www.w3.org/2000/svg">
  <g transform="matrix(1 0 0 1 -330 -219 )">
    <path d="M 8.48969933184855 10.92578125  C 8.54259465478842 10.8763020833333  8.56904231625835 10.8151041666667  8.56904231625835 10.7421875  L 8.56904231625835 9.2578125  C 8.56904231625835 9.18489583333333  8.54259465478842 9.12369791666667  8.48969933184855 9.07421875  C 8.43680400890869 9.02473958333333  8.37416481069042 9  8.30178173719376 9  L 6.69821826280624 9  C 6.62583518930958 9  6.56319599109131 9.02473958333333  6.51030066815145 9.07421875  C 6.45740534521158 9.12369791666667  6.43095768374165 9.18489583333333  6.43095768374165 9.2578125  L 6.43095768374165 10.7421875  C 6.43095768374165 10.8151041666667  6.45740534521158 10.8763020833333  6.51030066815145 10.92578125  C 6.56319599109131 10.9752604166667  6.62583518930958 11  6.69821826280624 11  L 8.30178173719376 11  C 8.37416481069042 11  8.43680400890869 10.9752604166667  8.48969933184855 10.92578125  Z M 8.46464365256125 7.94921875  C 8.51753897550111 7.91536458333333  8.5467706013363 7.87239583333333  8.55233853006681 7.8203125  L 8.70267260579065 4.234375  C 8.70267260579065 4.171875  8.67483296213809 4.12239583333333  8.61915367483296 4.0859375  C 8.54677060133631 4.02864583333333  8.47995545657016 4  8.41870824053452 4  L 6.58129175946548 4  C 6.52004454342985 4  6.4532293986637 4.02864583333333  6.38084632516704 4.0859375  C 6.32516703786192 4.12239583333333  6.29732739420935 4.17708333333333  6.29732739420935 4.25  L 6.43930957683742 7.8203125  C 6.43930957683742 7.87239583333333  6.46714922048998 7.91536458333333  6.5228285077951 7.94921875  C 6.57850779510022 7.98307291666667  6.64532293986637 8  6.72327394209354 8  L 8.26837416481069 8  C 8.34632516703786 8  8.41174832962138 7.98307291666667  8.46464365256125 7.94921875  Z M 8.04287305122494 0.140625  C 8.20991091314031 0.234375  8.34075723830735 0.361979166666666  8.43541202672606 0.523437500000001  L 14.8496659242762 11.5234375  C 15.0445434298441 11.8515625  15.0389755011136 12.1796875  14.8329621380846 12.5078125  C 14.7383073496659 12.6588541666667  14.6088530066815 12.7786458333333  14.4445991091314 12.8671875  C 14.2803452115813 12.9557291666667  14.1035634743875 13  13.9142538975501 13  L 1.08574610244989 13  C 0.896436525612472 13  0.719654788418708 12.9557291666667  0.555400890868597 12.8671875  C 0.391146993318486 12.7786458333333  0.261692650334076 12.6588541666667  0.167037861915367 12.5078125  C -0.0389755011135858 12.1796875  -0.044543429844098 11.8515625  0.150334075723831 11.5234375  L 6.56458797327394 0.523437500000001  C 6.65924276169265 0.361979166666666  6.79008908685969 0.234375  6.95712694877506 0.140625  C 7.12416481069042 0.0468750000000006  7.30512249443207 0  7.5 0  C 7.69487750556793 0  7.87583518930958 0.0468750000000006  8.04287305122494 0.140625  Z " fill-rule="nonzero" fill="#ffffff" stroke="none" transform="matrix(1 0 0 1 330 219 )" />
  </g>
</svg>